# xmcd
#
# Track frame offsets: 
#        150
#        35354
#        63620
#        88409
#        110866
#        133865
#        161492
#
# Disc length: 2488 seconds
#
# Revision: 0
# Processed by: cddbd v1.4PL0 Copyright (c) Steve Scherf et al.
# Submitted via: ExactAudioCopy v0.90b3
#
DISCID=6609b607
DTITLE=Gerry Burns - White Shoes
DYEAR=1999
DGENRE=Country
TTITLE0=On The Horizon
TTITLE1=Put On Your White Shoes
TTITLE2=The Passenger
TTITLE3=City Gait
TTITLE4=Road To Eden
TTITLE5=Space Trek
TTITLE6=Dream Path
EXTD=
EXTT0=
EXTT1=
EXTT2=
EXTT3=
EXTT4=
EXTT5=
EXTT6=
PLAYORDER=
